<svg xmlns="http://www.w3.org/2000/svg" viewBox="0 0 24 24">
  <path fill="currentColor" d="M11.7 2.3a.8.8 0 0 1 .8 0l7 4a.8.8 0 0 1 .4.7v10a.8.8 0 0 1-.4.7l-7 4a.8.8 0 0 1-.8 0l-7-4a.8.8 0 0 1-.4-.7V7a.8.8 0 0 1 .4-.7l7-4Zm.4 1.6L5.9 7.4v9.2l6.2 3.5 6.2-3.5V7.4l-6.2-3.5Zm-1.8 5.3c-.7 0-1.3.2-1.7.7-.4.5-.6 1.2-.6 2.1s.2 1.6.6 2.1c.4.5 1 .7 1.7.7.6 0 1.2-.2 1.8-.5v1.5c-.5.3-1.2.4-1.9.4-1.2 0-2.1-.4-2.8-1.1-.7-.7-1-1.8-1-3.1s.3-2.4 1-3.1c.7-.7 1.6-1.1 2.8-1.1.7 0 1.4.2 2 .5l-.6 1.4c-.4-.4-.8-.5-1.3-.5Zm3.7-1.1h1v1.8h1V8.1h1v1.8h1.5v1H17v1.7h1.5v1H17v1.8h-1v-1.8h-1v1.8h-1v-1.8h-1.4v-1H14v-1.7h-1.4v-1H14V8.1Zm1 2.8v1.7h1v-1.7h-1Z"/>
</svg>
